<?xml version="1.0" standalone="no"?>
<!DOCTYPE svg PUBLIC "-//W3C//DTD SVG 20010904//EN"
 "http://www.w3.org/TR/2001/REC-SVG-20010904/DTD/svg10.dtd">
<svg version="1.0" xmlns="http://www.w3.org/2000/svg"
 width="155.000000pt" height="141.000000pt" viewBox="0 0 155.000000 141.000000"
 preserveAspectRatio="xMidYMid meet">

<g transform="translate(0.000000,141.000000) scale(0.100000,-0.100000)"
fill="#000000" stroke="none">
<path d="M615 1286 c-237 -54 -426 -222 -480 -427 -22 -79 -19 -214 5 -291 47
-153 184 -293 355 -365 190 -80 443 -64 623 39 65 37 163 126 203 185 l30 43
-231 0 -231 0 12 -21 c16 -30 6 -111 -17 -141 -48 -64 -142 -96 -228 -78 -143
29 -252 151 -301 335 -21 78 -21 241 0 320 85 325 373 443 575 235 133 -137
158 -346 56 -466 -46 -53 -81 -67 -156 -62 -109 8 -179 92 -188 224 -6 95 1
129 43 199 l35 58 -45 -6 c-102 -14 -210 -102 -235 -192 -33 -118 42 -244 174
-294 54 -20 74 -21 416 -21 l359 0 10 37 c6 21 11 81 11 133 -1 157 -53 275
-175 388 -125 118 -262 173 -445 178 -74 2 -136 -1 -175 -10z"/>
</g>
</svg>
